<svg xmlns="http://www.w3.org/2000/svg" width="651" height="651"><path d="M341.628 225.764c4.667.01 9.333.007 14 .007 7.802 0 15.605.01 23.408.023 9.023.016 18.047.021 27.071.02 9.645 0 19.29.007 28.934.016 2.773.002 5.546.003 8.32.003 4.333.001 8.667.007 13.001.017 1.593.003 3.186.004 4.779.004 2.164 0 4.327.005 6.491.012l3.675.005C474 226 474 226 475 227c2.213 31.46-11.173 64.053-31.254 87.648A309.593 309.593 0 0 1 437 322l-2.04 2.234c-20.173 21.308-50.62 34.748-79.868 35.878-3.316.065-6.631.104-9.947.134l-7.514.1c-3.905.047-7.81.091-11.716.13-3.799.04-7.597.092-11.395.145l-3.474.026c-10.946.164-21.91 1.298-32.421 4.478l-2.127.637c-18.377 5.81-44.253 19.1-53.713 36.468L222 404l1.73.742C234.39 409.657 243.253 417.27 252 425l2.688-2.875C266.922 410.013 280.994 401.504 298 398l2.602-.55c23.4-3.094 46.448.667 65.46 15.175A352 352 0 0 1 370 416l1.777 1.348c5.884 4.576 9.988 10.584 14.223 16.652l1.66 2.332c10.787 16.425 14.709 37.113 16.84 56.293 2.105 18.768 6.474 39.39 21.5 52.375 2.007 1.315 3.742 2.153 6 3l.723-2.531c1.479-4.016 3.43-7.368 5.715-10.969l1.34-2.119c9.668-15.016 21.611-29.341 35.367-40.78 2.234-1.928 4.284-3.998 6.355-6.101 2.728-2.766 5.485-5.413 8.438-7.938C499.349 469.44 508.087 460.37 515 450c-23.766-11.25-52.345-18.084-78.086-9.254-3.882 1.67-7.385 3.73-10.89 6.082C424 448 424 448 421 448c-.577-14.644 1.42-27.078 11.563-38.188C442.9 400.075 457.18 396.74 471 396l2.023-.125c14.228-.436 28.372 2.874 42.102 6.187 2.31.55 4.62 1.097 6.93 1.641 1.419.335 2.836.673 4.252 1.015 19.868 4.73 40.813 3.77 58.693-6.718 2.773 2.773 1.961 10.917 2.038 14.745C586.687 433.54 576.007 451.52 563 467l-2.284 2.805c-10.445 12.664-22.369 23.931-34.098 35.385C505.333 524.554 505.333 524.554 491 549c.208 2.801.418 4.396 2.39 6.441 18.629 11.232 46.577 13.47 67.77 9.313 7.969-2.116 14.929-5.29 21.317-10.52C584 553 584 553 586 552c2.185 13.083-.14 26.516-7.754 37.54-9.236 11.158-23.14 16.61-37.246 18.46-6.375.38-12.773.282-19.156.266l-5.612.005c-3.914.003-7.827 0-11.74-.01-4.965-.012-9.929-.005-14.893.007-3.864.007-7.729.005-11.593 0-1.827-.002-3.654 0-5.482.005-15.216.03-30.67-.374-45.399-4.586l-2.39-.66c-24.622-7.007-44.163-21.229-56.967-43.368-9.81-17.801-13.284-37.09-15.205-57.097-2.635-27.326-2.635-27.326-17.563-49.562-8-6.113-17.363-6.215-27-5-3.468.819-6.064 2-9 4l-2.066 1.332c-10.518 7.884-14.462 22.238-16.621 34.605-2.024 20.95.72 46.773 13.828 63.852 3.295 3.8 6.452 7.112 10.734 9.773 5.109 3.985 5.911 9.239 6.813 15.438.384 4.532.447 9.079.5 13.625l.04 2.172c.006 4.769-.724 8.674-2.228 13.203-17.603-.634-33.43-6.493-46-19l-2.812 2.562c-15.8 13.48-33.205 18.92-53.754 18.872-1.369.004-2.737.01-4.106.015-2.851.01-5.702.007-8.554-.003-2.879-.01-5.757-.002-8.636.02-23.037.182-45.851-.683-66.65-11.81-3.75-.989-5.882.39-9.363 1.969-13.767 5.94-28.308 9.442-43.357 9.394l-3.273-.009L61 608c-.07-18.474-.123-36.948-.155-55.422-.016-8.58-.037-17.16-.071-25.741-.03-7.492-.05-14.983-.056-22.475-.004-3.955-.013-7.91-.035-11.865-.124-22.877.733-45.488 5.942-67.872l.765-3.339C78.152 376.124 100.05 336.547 132 303l1.728-1.815c8.528-8.89 17.343-16.894 27.272-24.185l1.762-1.308c54.051-40.001 113.21-50.08 178.866-49.928Z" fill="#645F8E"/><path d="M267.764 27.768c4.294.009 8.588.006 12.882.004 7.42-.001 14.84.005 22.26.017 10.729.016 21.457.021 32.185.024 17.41.004 34.82.017 52.23.036 16.902.019 33.803.033 50.704.041l3.163.002 15.71.007c43.367.021 86.735.056 130.102.101a225996350.143 225996350.143 0 0 0 .047 8.91c-.064 4.187-.546 8.215-1.234 12.34l-.404 2.45C580.874 77.577 568.698 100.738 551 120l-2.39 2.64c-20.642 21.736-51.48 37.07-81.65 38.453a336.03 336.03 0 0 1-6.49.045l-2.488.009c-2.732.008-5.463.01-8.195.01l-5.901.016c-4.228.011-8.455.02-12.683.026-6.696.01-13.393.031-20.089.053-19.04.062-38.079.116-57.118.15-10.522.018-21.044.047-31.565.087-5.56.021-11.12.037-16.68.04-5.236.001-10.472.017-15.708.044-1.91.007-3.822.009-5.733.005-26.034-.039-49.51 5.907-68.658 24.645-8.104 8.486-15.637 19.808-17.535 31.582-2.058 12.407-2.058 12.407-5.914 15.756-4.61 2.796-9.626 4.578-14.67 6.428-4.037 1.612-7.697 3.763-11.408 6.011l-2.123 1.274c-13.627 8.279-27.555 17.611-38.564 29.253C124 278 124 278 121 280.437c-2.97 2.537-5.404 5.147-7.918 8.122-1.51 1.771-3.06 3.51-4.633 5.226C88.16 316.17 73.847 343.416 62 371h-1c-.07-21.133-.123-42.267-.155-63.4-.016-9.815-.037-19.63-.071-29.445-.03-8.565-.05-17.13-.056-25.695-.004-4.525-.013-9.05-.035-13.577C60.505 200.984 64.826 166.284 82 132l.913-1.85C90.823 114.233 100.96 100.05 113 87l1.62-1.757C127.026 71.96 141.201 60.976 157 52l3.398-1.98c14.217-8.085 29.438-13.5 45.29-17.395l2.907-.723c19.535-4.523 39.259-4.185 59.169-4.134Z" fill="#8B81B9"/><path d="M267.764 27.768c4.294.009 8.588.006 12.882.004 7.42-.001 14.84.005 22.26.017 10.729.016 21.457.021 32.185.024 17.41.004 34.82.017 52.23.036 16.902.019 33.803.033 50.704.041l3.163.002 15.71.007c43.367.021 86.735.056 130.102.101v12h-1l-1-9-1.8 2.422C566.106 56.177 546.013 73.21 520 85l-1.858.843c-7.357 3.275-14.823 5.793-22.58 7.907l-2.163.602c-14.832 3.827-29.856 3.944-45.062 3.935l-6.402.02c-4.566.016-9.132.024-13.697.029-7.241.006-14.482.028-21.723.052-15.38.049-30.76.081-46.14.112-16.59.033-33.179.07-49.769.124-7.175.023-14.351.037-21.527.044-4.492.006-8.983.02-13.475.036-2.058.006-4.116.008-6.174.007-18.101-.007-36.507.404-54.117 4.976l-3.147.79C178.534 113.195 149.053 130.017 124 154l-1.692 1.593C109.354 167.831 98.776 181.468 90 197l-1.343 2.32C72.038 228.282 64.726 258.934 62 292h-1c-.07-10.833-.123-21.666-.155-32.5-.016-5.032-.037-10.065-.071-15.097C60.508 204.433 63.852 168.228 82 132l.913-1.85C90.823 114.233 100.96 100.05 113 87l1.62-1.757C127.026 71.96 141.201 60.976 157 52l3.398-1.98c14.217-8.085 29.438-13.5 45.29-17.395l2.907-.723c19.535-4.523 39.259-4.185 59.169-4.134Z" fill="#A89ECF"/><path d="M341.628 225.764c4.667.01 9.333.007 14 .007 7.802 0 15.605.01 23.408.023 9.023.016 18.047.021 27.071.02 9.645 0 19.29.007 28.934.016 2.773.002 5.546.003 8.32.003 4.333.001 8.667.007 13.001.017 1.593.003 3.186.004 4.779.004 2.164 0 4.327.005 6.491.012l3.675.005C474 226 474 226 475 227c.072 1.52.084 3.042.063 4.562l-.028 2.504L475 236h-1l-1-6-1.469 2.71c-4.238 7.698-8.746 14.633-14.531 21.29l-2.047 2.45c-15.424 17.928-34.968 29.457-57.515 36.3l-1.963.603c-12.596 3.623-25.02 3.93-38.02 3.921-3.115 0-6.229.013-9.343.03-8.847.045-17.694.07-26.542.077-75.497.083-144.082 15.542-199.882 69.681-4.56 4.706-8.62 9.808-12.688 14.938l-2.336 2.82C83.514 413.514 66.967 452.435 62 489h-1c-1.673-69.92 22.704-135.29 71-186l1.728-1.815c8.528-8.89 17.343-16.894 27.272-24.185l1.762-1.308c54.051-40.001 113.21-50.08 178.866-49.928Z" fill="#95A4B9"/><path d="M473 229h1c1.08 34.586-11.268 65.277-34.773 90.64L437 322l-2.04 2.234c-20.173 21.308-50.62 34.748-79.868 35.878-3.316.065-6.631.104-9.947.134l-7.514.1c-3.905.047-7.81.091-11.716.13-3.799.04-7.597.092-11.395.145l-3.474.026c-10.946.164-21.91 1.298-32.421 4.478l-2.127.637c-18.377 5.81-44.253 19.1-53.713 36.468L222 404l5 2c-2.606.93-3.642 1.15-6.25.063L219 405v-2c-5.952-1.889-11.955-3.565-18-5.125l-1.938-.517c-27.654-7.01-59.794-2.21-84.362 12.045C94.484 421.65 80.652 438.073 70 459c-1-2-1-2-.538-4.005C79.32 425.805 92.548 399.26 113 376l1.543-1.764c10.682-12.12 22.39-22.744 35.457-32.236l3.207-2.355C178.2 321.87 207.324 310.127 237 303l3.797-.926c3.717-.82 7.447-1.464 11.203-2.074l2.264-.379c25.348-4.04 51.14-3.086 76.724-3.126 6.597-.012 13.195-.036 19.793-.075 3.044-.013 6.087-.01 9.132-.005 11.062-.032 21.3-.875 32.087-3.415l2.555-.582c32.25-7.808 57.15-28.86 74.331-56.589.975-1.6 1.924-3.218 2.868-4.837L473 229Z" fill="#6E84A1"/><path d="M473.023 395.875c14.228-.436 28.372 2.874 42.102 6.188 2.31.55 4.62 1.096 6.93 1.64 1.419.335 2.836.673 4.252 1.015 19.868 4.73 40.813 3.77 58.693-6.718 2.773 2.773 1.961 10.917 2.038 14.745C586.687 433.54 576.007 451.52 563 467l-2.284 2.805c-10.445 12.664-22.369 23.931-34.098 35.385C505.333 524.554 505.333 524.554 491 549c.208 2.801.418 4.396 2.39 6.441 18.629 11.232 46.577 13.47 67.77 9.313 7.969-2.116 14.929-5.29 21.317-10.52C584 553 584 553 586 552c2.185 13.083-.14 26.516-7.754 37.54C570.29 599.15 559.043 604.345 547 607a65.254 65.254 0 0 1-4.024.161l-2.371.03-2.55.012-2.679.017c-1.878.01-3.755.016-5.633.02-2.81.01-5.618.04-8.427.072-15.5.093-30.37-1.358-45.066-6.562l-2.664-.923c-25.92-9.215-46.378-25.49-58.446-50.446-5.113-11.168-9.81-24.985-9.14-37.381 2 1 2 1 3.078 3.809l1.172 3.629c3.596 10.566 9.224 21.765 19.188 27.562l2.562 1 .723-2.531c1.479-4.016 3.43-7.368 5.714-10.969l1.341-2.119c9.668-15.016 21.611-29.341 35.367-40.78 2.234-1.928 4.284-3.998 6.355-6.101 2.728-2.766 5.485-5.413 8.438-7.938C499.349 469.44 508.087 460.37 515 450c-23.766-11.25-52.345-18.084-78.086-9.254-3.882 1.67-7.385 3.73-10.89 6.082C424 448 424 448 421 448c-.577-14.644 1.42-27.078 11.563-38.188 11.021-10.38 25.887-13.037 40.46-13.937Z" fill="#7085A1"/><path d="M366.063 412.625A352 352 0 0 1 370 416l1.777 1.348c5.884 4.576 9.988 10.584 14.223 16.652l1.66 2.332c12.688 19.32 15.634 43.654 18.042 66.041.248 2.184.55 4.362.864 6.537.397 2.823.566 5.558.684 8.402 1.23 14.7 6.574 27.954 13.75 40.688l1.684 3.055C429.127 571.964 438.315 580.318 449 587l2.836 1.805c7.1 4.342 14.302 7.496 22.164 10.195l3.078 1.09c20.832 6.935 42.22 6.592 63.922 6.91v1c-10.902.047-21.804.082-32.706.104-5.065.01-10.129.024-15.193.047-4.902.022-9.804.034-14.706.039-1.855.003-3.71.01-5.565.021-15.331.087-30.86-.28-45.705-4.524l-2.39-.66c-24.622-7.007-44.163-21.229-56.967-43.368-9.81-17.801-13.284-37.09-15.205-57.096-2.635-27.327-2.635-27.327-17.563-49.563-8-6.113-17.363-6.215-27-5-7.921 1.87-13.394 7.394-19 13l-1.066-3.043C283.139 444.556 277.357 432.865 268 422a1767.6 1767.6 0 0 1-3-3.625L263 416c24.707-28 75.428-24.463 103.063-3.375Z" fill="#A39ACA"/><path d="M210.563 447.11 213 449l3.188 2.25c5.152 5.038 11.331 11.91 13.812 18.75-.137 2.059-.137 2.059-.688 4.438-2.51 12.504-4.285 24.812-4.738 37.574l-.102 2.69a735.568 735.568 0 0 0-.386 13.523c-.055 1.693-.111 3.387-.168 5.08l-.01 2.34c-.249 6.077-2.535 9.244-6.908 13.355-6.326 5.409-13.315 9.81-21 13l-2.297.969c-16.085 5.532-34.516 2.807-49.555-4.32-15.661-8.68-27.035-22.975-32.386-39.887-3.772-13.675-3.433-29.715 2.238-42.762l1.133-2.688c2.808-6.099 6.483-11.248 10.867-16.312l1.77-2.059c21.068-22.754 57.959-26.052 82.793-7.832Z" fill="#6E83A1"/><path d="m253 161-2 1-1 3c-2.773 1.36-2.773 1.36-6.375 2.75-20.332 8.289-35.058 23.05-43.897 43.177-.804 2.289-1.225 4.484-1.61 6.878-2.06 12.407-2.06 12.407-5.915 15.756-4.61 2.796-9.626 4.578-14.67 6.428-4.037 1.612-7.697 3.763-11.408 6.011l-2.123 1.274c-13.627 8.279-27.555 17.611-38.565 29.253C124 278 124 278 121 280.437c-2.97 2.537-5.404 5.147-7.918 8.122-1.51 1.771-3.06 3.51-4.633 5.226C88.16 316.17 73.847 343.416 62 371h-1c-.234-9.903-.41-19.804-.518-29.71-.052-4.601-.122-9.201-.236-13.802-.936-38.47-.936-38.47 9.474-56.275 1.71-2.956 3.183-6.009 4.665-9.083 21.178-42.904 62.466-75.311 107.013-90.973C204.475 163.423 228.72 159.927 253 161Z" fill="#6775A0"/><path d="M199 442c4.137.554 6.644 1.864 10 4.313l2.5 1.8L214 450l2.52 1.855c2.854 2.468 4.932 5.108 7.167 8.145l2.325 3.125c4.055 5.864 4.055 5.864 3.851 8.934l-.55 2.378c-2.511 12.505-4.286 24.813-4.739 37.575l-.102 2.69a735.568 735.568 0 0 0-.386 13.523c-.055 1.693-.111 3.387-.168 5.08l-.01 2.34c-.249 6.077-2.535 9.244-6.908 13.355-6.326 5.409-13.315 9.81-21 13l-2.297.969c-6.633 2.281-13.26 2.31-20.203 2.343l-2.972.017c-7.143-.072-7.143-.072-10.528-2.329l1.871-2.281c11.849-14.74 20.384-31.158 25.879-49.282l.603-1.962c3.069-10.667 3.894-21.632 4.522-32.663.771-11.933 2.332-23.432 6.125-34.812Z" fill="#FDFDFE"/><path d="M230 471c7.858 9.318 7.722 23.418 8.353 35.009C240.017 535.694 244.72 562.243 264 586c-11.515 12.93-28.372 21.025-45.624 22.26-3.884.084-7.761.079-11.646.033a1835.554 1835.554 0 0 1-15.291-.087c-3.774-.031-7.549-.044-11.324-.06A5157.02 5157.02 0 0 1 158 608v-1l3.008-.227c18.8-1.698 33.728-9.797 46.031-24.253 8.527-10.956 13.35-23.143 13.82-37.07C221 543 221 543 222 542c.196-2.708.332-5.397.43-8.11l.216-5.138.112-2.726c1.069-25.41 1.069-25.41 2.68-36.401l.333-2.308c.909-5.59 2.51-10.928 4.229-16.317Z" fill="#A39AC9"/><path d="M61 489h1l.028 2.3c.53 34.355 7.917 62.544 33.343 87.395C102.221 584.7 109.75 590.12 118 594c-2.67 3.32-6.182 4.513-10.063 5.938l-2.113.783C91.148 605.96 76.57 608 61 608V489Z" fill="#7083A0"/><path d="M230 471c7.858 9.318 7.722 23.418 8.353 35.009C240.017 535.694 244.72 562.243 264 586a948.854 948.854 0 0 1-3.313 3.375l-1.863 1.898C257 593 257 593 254 595c-2.885-.196-4.51-.605-6.773-2.426C226.927 568.661 222.049 532.58 224 502c.997-10.643 2.695-20.823 6-31Z" fill="#857CAF"/><path d="M222 544c-.381 18.913-9.015 34.634-22.432 47.595C185.727 603.993 170.201 607.93 152 607v-2c1.61-1.438 1.61-1.438 3.75-3l2.11-1.563C160 599 160 599 162.202 597.923c2.405-1.234 2.707-2.47 3.797-4.922l1.895-2.668c2.218-3.51 3.566-6.964 4.792-10.894l.643-1.96c1.117-3.463 2.044-6.892 2.67-10.478h-10v-1l2.754-.078c19.564-.883 35.14-6.69 49.726-19.727C221 544 221 544 222 544Z" fill="#514B76"/><path d="M264 416c10.602 9.721 17.451 22.966 23 36l1.195 2.746c1.903 5.329-.386 9.822-2.57 14.692-3.198 7.295-4.405 14.744-5.625 22.562-2.476-3.713-2.952-7.322-3.75-11.625-3.599-17.995-9.94-35.605-22-49.738C253 429 253 429 253 427l-2-1c1.268-1.295 2.54-2.586 3.813-3.875l2.144-2.18C261.1 416 261.1 416 264 416Z" fill="#7F76A8"/><path d="M61 206h1l.076 3.69c.096 4.62.195 9.24.295 13.859l.131 6.146c.234 10.948.509 21.873 1.185 32.805.593 9.951-.392 19.635-1.687 29.5h-1v-86Z" fill="#ADA7C3"/><path d="M61 292h1v70h2l1-3c1.214 3.642.667 4.332-.938 7.688l-1.152 2.449L62 371h-1v-79Z" fill="#778096"/><path d="m486 481 2 1c-7.475 8.206-15.08 16.22-23 24l-3-2c3.507-3.605 7.056-7.1 10.875-10.375 4.613-3.971 8.867-8.279 13.125-12.625Z" fill="#8493A6"/><path d="m124 76 3 1a1071.854 1071.854 0 0 1-4.875 5l-2.742 2.813C117 87 117 87 115 87l-.625 1.625c-1.955 3.377-4.557 5.68-7.375 8.375l-2-1c12.485-13.633 12.485-13.633 19-20Z" fill="#ACA5C5"/><path d="M264 416c-1.39 3.156-3.02 5.24-5.5 7.625l-1.844 1.79L255 427l-2 2v-2l-2-1c1.268-1.295 2.54-2.586 3.813-3.875l2.144-2.18C261.1 416 261.1 416 264 416Z" fill="#908BAA"/><path d="M223 518c2.19 3.285 2.353 4.831 2.625 8.688l.227 3.011L226 532h-1l-1 10h-1v-24Z" fill="#9D95B8"/><path d="M421 434h2l1 14h-3v-14Z" fill="#8F9AA9"/><path d="M406 512c2 1 2 1 2.852 3.504l.773 3.058c.26 1.012.52 2.024.79 3.067L411 524h-4l-1-12Z" fill="#8A91AA"/><path d="m64 359 2 1c-.45 1.46-.91 2.918-1.375 4.375l-.773 2.46C63 369 63 369 61 371l1-9h2v-3Z" fill="#82899A"/><path d="m261 161-1 2c-2.285.633-2.285.633-5.063 1.125l-2.785.508L250 165l1-3c3.215-1.607 6.436-1.057 10-1Z" fill="#8589A7"/><path d="M143 61v3c-1.426 1.422-1.426 1.422-3.313 2.75l-1.863 1.36C136 69 136 69 133 68l10-7Z" fill="#AFA9C8"/><path d="M288 457h1c-.438 4.557-.85 7.577-4 11v-6h2l1-5Z" fill="#8E87AB"/><path d="M435 408c0 4.316-2.133 5.928-5 9h-2c1.555-3.817 4.036-6.192 7-9Z" fill="#8492A3"/><path d="M417 537c4 1.333 4.838 3.496 7 7h-3c-4-4.343-4-4.343-4-7Z" fill="#8692A4"/><path d="M583 50h2l-1 9c-2-3-2-3-1.625-6.188L583 50Z" fill="#9A94B5"/></svg>